<mxfile host="app.diagrams.net" modified="2021-06-24T09:09:01.206Z" agent="5.0 (X11; Linux x86_64) AppleWebKit/537.36 (KHTML, like Gecko) Chrome/90.0.4430.85 Safari/537.36" etag="cD8o_ge98zy1ORnPo93_" version="14.8.0" type="github">
  <diagram id="R2lEEEUBdFMjLlhIrx00" name="Page-1">
    <mxGraphModel dx="734" dy="479" grid="1" gridSize="10" guides="1" tooltips="1" connect="1" arrows="1" fold="1" page="1" pageScale="1" pageWidth="850" pageHeight="1100" math="0" shadow="0" extFonts="Permanent Marker^https://fonts.googleapis.com/css?family=Permanent+Marker">
      <root>
        <mxCell id="0" />
        <mxCell id="1" parent="0" />
        <mxCell id="v78C8Z_HUgaOXY8lsGoI-1" value="" style="edgeStyle=entityRelationEdgeStyle;endArrow=ERone;startArrow=ERoneToMany;endFill=0;startFill=0;" edge="1" parent="1" source="v78C8Z_HUgaOXY8lsGoI-3" target="v78C8Z_HUgaOXY8lsGoI-25">
          <mxGeometry width="100" height="100" relative="1" as="geometry">
            <mxPoint x="400" y="180" as="sourcePoint" />
            <mxPoint x="460" y="205" as="targetPoint" />
          </mxGeometry>
        </mxCell>
        <mxCell id="v78C8Z_HUgaOXY8lsGoI-2" value="Question" style="shape=table;startSize=30;container=1;collapsible=1;childLayout=tableLayout;fixedRows=1;rowLines=0;fontStyle=1;align=center;resizeLast=1;" vertex="1" parent="1">
          <mxGeometry x="450" y="120" width="250" height="120" as="geometry" />
        </mxCell>
        <mxCell id="v78C8Z_HUgaOXY8lsGoI-3" value="" style="shape=partialRectangle;collapsible=0;dropTarget=0;pointerEvents=0;fillColor=none;points=[[0,0.5],[1,0.5]];portConstraint=eastwest;top=0;left=0;right=0;bottom=1;" vertex="1" parent="v78C8Z_HUgaOXY8lsGoI-2">
          <mxGeometry y="30" width="250" height="30" as="geometry" />
        </mxCell>
        <mxCell id="v78C8Z_HUgaOXY8lsGoI-4" value="id" style="shape=partialRectangle;overflow=hidden;connectable=0;fillColor=none;top=0;left=0;bottom=0;right=0;fontStyle=0;" vertex="1" parent="v78C8Z_HUgaOXY8lsGoI-3">
          <mxGeometry width="90" height="30" as="geometry" />
        </mxCell>
        <mxCell id="v78C8Z_HUgaOXY8lsGoI-5" value="integer(auto increment)" style="shape=partialRectangle;overflow=hidden;connectable=0;fillColor=none;top=0;left=0;bottom=0;right=0;align=left;spacingLeft=6;fontStyle=0;" vertex="1" parent="v78C8Z_HUgaOXY8lsGoI-3">
          <mxGeometry x="90" width="160" height="30" as="geometry" />
        </mxCell>
        <mxCell id="v78C8Z_HUgaOXY8lsGoI-6" style="shape=partialRectangle;collapsible=0;dropTarget=0;pointerEvents=0;fillColor=none;points=[[0,0.5],[1,0.5]];portConstraint=eastwest;top=0;left=0;right=0;bottom=1;" vertex="1" parent="v78C8Z_HUgaOXY8lsGoI-2">
          <mxGeometry y="60" width="250" height="30" as="geometry" />
        </mxCell>
        <mxCell id="v78C8Z_HUgaOXY8lsGoI-7" value="body" style="shape=partialRectangle;overflow=hidden;connectable=0;fillColor=none;top=0;left=0;bottom=0;right=0;fontStyle=0;" vertex="1" parent="v78C8Z_HUgaOXY8lsGoI-6">
          <mxGeometry width="90" height="30" as="geometry" />
        </mxCell>
        <mxCell id="v78C8Z_HUgaOXY8lsGoI-8" value="varchar" style="shape=partialRectangle;overflow=hidden;connectable=0;fillColor=none;top=0;left=0;bottom=0;right=0;align=left;spacingLeft=6;fontStyle=0;" vertex="1" parent="v78C8Z_HUgaOXY8lsGoI-6">
          <mxGeometry x="90" width="160" height="30" as="geometry" />
        </mxCell>
        <mxCell id="v78C8Z_HUgaOXY8lsGoI-9" style="shape=partialRectangle;collapsible=0;dropTarget=0;pointerEvents=0;fillColor=none;points=[[0,0.5],[1,0.5]];portConstraint=eastwest;top=0;left=0;right=0;bottom=1;" vertex="1" parent="v78C8Z_HUgaOXY8lsGoI-2">
          <mxGeometry y="90" width="250" height="30" as="geometry" />
        </mxCell>
        <mxCell id="v78C8Z_HUgaOXY8lsGoI-10" value="test_id" style="shape=partialRectangle;overflow=hidden;connectable=0;fillColor=none;top=0;left=0;bottom=0;right=0;fontStyle=0;" vertex="1" parent="v78C8Z_HUgaOXY8lsGoI-9">
          <mxGeometry width="90" height="30" as="geometry" />
        </mxCell>
        <mxCell id="v78C8Z_HUgaOXY8lsGoI-11" value="integer" style="shape=partialRectangle;overflow=hidden;connectable=0;fillColor=none;top=0;left=0;bottom=0;right=0;align=left;spacingLeft=6;fontStyle=0;" vertex="1" parent="v78C8Z_HUgaOXY8lsGoI-9">
          <mxGeometry x="90" width="160" height="30" as="geometry" />
        </mxCell>
        <mxCell id="v78C8Z_HUgaOXY8lsGoI-12" value="Test" style="shape=table;startSize=30;container=1;collapsible=1;childLayout=tableLayout;fixedRows=1;rowLines=0;fontStyle=1;align=center;resizeLast=1;" vertex="1" parent="1">
          <mxGeometry x="450" y="270" width="250" height="175" as="geometry" />
        </mxCell>
        <mxCell id="v78C8Z_HUgaOXY8lsGoI-13" value="" style="shape=partialRectangle;collapsible=0;dropTarget=0;pointerEvents=0;fillColor=none;points=[[0,0.5],[1,0.5]];portConstraint=eastwest;top=0;left=0;right=0;bottom=1;" vertex="1" parent="v78C8Z_HUgaOXY8lsGoI-12">
          <mxGeometry y="30" width="250" height="30" as="geometry" />
        </mxCell>
        <mxCell id="v78C8Z_HUgaOXY8lsGoI-14" value="id" style="shape=partialRectangle;overflow=hidden;connectable=0;fillColor=none;top=0;left=0;bottom=0;right=0;fontStyle=0;" vertex="1" parent="v78C8Z_HUgaOXY8lsGoI-13">
          <mxGeometry width="90" height="30" as="geometry" />
        </mxCell>
        <mxCell id="v78C8Z_HUgaOXY8lsGoI-15" value="integer(auto increment)" style="shape=partialRectangle;overflow=hidden;connectable=0;fillColor=none;top=0;left=0;bottom=0;right=0;align=left;spacingLeft=6;fontStyle=0;" vertex="1" parent="v78C8Z_HUgaOXY8lsGoI-13">
          <mxGeometry x="90" width="160" height="30" as="geometry" />
        </mxCell>
        <mxCell id="v78C8Z_HUgaOXY8lsGoI-16" style="shape=partialRectangle;collapsible=0;dropTarget=0;pointerEvents=0;fillColor=none;points=[[0,0.5],[1,0.5]];portConstraint=eastwest;top=0;left=0;right=0;bottom=1;" vertex="1" parent="v78C8Z_HUgaOXY8lsGoI-12">
          <mxGeometry y="60" width="250" height="30" as="geometry" />
        </mxCell>
        <mxCell id="v78C8Z_HUgaOXY8lsGoI-17" value="title" style="shape=partialRectangle;overflow=hidden;connectable=0;fillColor=none;top=0;left=0;bottom=0;right=0;fontStyle=0;" vertex="1" parent="v78C8Z_HUgaOXY8lsGoI-16">
          <mxGeometry width="90" height="30" as="geometry" />
        </mxCell>
        <mxCell id="v78C8Z_HUgaOXY8lsGoI-18" value="varchar" style="shape=partialRectangle;overflow=hidden;connectable=0;fillColor=none;top=0;left=0;bottom=0;right=0;align=left;spacingLeft=6;fontStyle=0;" vertex="1" parent="v78C8Z_HUgaOXY8lsGoI-16">
          <mxGeometry x="90" width="160" height="30" as="geometry" />
        </mxCell>
        <mxCell id="v78C8Z_HUgaOXY8lsGoI-19" style="shape=partialRectangle;collapsible=0;dropTarget=0;pointerEvents=0;fillColor=none;points=[[0,0.5],[1,0.5]];portConstraint=eastwest;top=0;left=0;right=0;bottom=1;" vertex="1" parent="v78C8Z_HUgaOXY8lsGoI-12">
          <mxGeometry y="90" width="250" height="30" as="geometry" />
        </mxCell>
        <mxCell id="v78C8Z_HUgaOXY8lsGoI-20" value="level" style="shape=partialRectangle;overflow=hidden;connectable=0;fillColor=none;top=0;left=0;bottom=0;right=0;fontStyle=0;" vertex="1" parent="v78C8Z_HUgaOXY8lsGoI-19">
          <mxGeometry width="90" height="30" as="geometry" />
        </mxCell>
        <mxCell id="v78C8Z_HUgaOXY8lsGoI-21" value="integer" style="shape=partialRectangle;overflow=hidden;connectable=0;fillColor=none;top=0;left=0;bottom=0;right=0;align=left;spacingLeft=6;fontStyle=0;" vertex="1" parent="v78C8Z_HUgaOXY8lsGoI-19">
          <mxGeometry x="90" width="160" height="30" as="geometry" />
        </mxCell>
        <mxCell id="v78C8Z_HUgaOXY8lsGoI-22" style="shape=partialRectangle;collapsible=0;dropTarget=0;pointerEvents=0;fillColor=none;points=[[0,0.5],[1,0.5]];portConstraint=eastwest;top=0;left=0;right=0;bottom=1;" vertex="1" parent="v78C8Z_HUgaOXY8lsGoI-12">
          <mxGeometry y="120" width="250" height="25" as="geometry" />
        </mxCell>
        <mxCell id="v78C8Z_HUgaOXY8lsGoI-23" value="deleted_at" style="shape=partialRectangle;overflow=hidden;connectable=0;fillColor=none;top=0;left=0;bottom=0;right=0;fontStyle=0;" vertex="1" parent="v78C8Z_HUgaOXY8lsGoI-22">
          <mxGeometry width="90" height="25" as="geometry" />
        </mxCell>
        <mxCell id="v78C8Z_HUgaOXY8lsGoI-24" value="datetime" style="shape=partialRectangle;overflow=hidden;connectable=0;fillColor=none;top=0;left=0;bottom=0;right=0;align=left;spacingLeft=6;fontStyle=0;" vertex="1" parent="v78C8Z_HUgaOXY8lsGoI-22">
          <mxGeometry x="90" width="160" height="25" as="geometry" />
        </mxCell>
        <mxCell id="v78C8Z_HUgaOXY8lsGoI-25" value="" style="shape=partialRectangle;collapsible=0;dropTarget=0;pointerEvents=0;fillColor=none;points=[[0,0.5],[1,0.5]];portConstraint=eastwest;top=0;left=0;right=0;bottom=0;" vertex="1" parent="v78C8Z_HUgaOXY8lsGoI-12">
          <mxGeometry y="145" width="250" height="30" as="geometry" />
        </mxCell>
        <mxCell id="v78C8Z_HUgaOXY8lsGoI-26" value="category_id" style="shape=partialRectangle;overflow=hidden;connectable=0;fillColor=none;top=0;left=0;bottom=0;right=0;" vertex="1" parent="v78C8Z_HUgaOXY8lsGoI-25">
          <mxGeometry width="90" height="30" as="geometry" />
        </mxCell>
        <mxCell id="v78C8Z_HUgaOXY8lsGoI-27" value="integer" style="shape=partialRectangle;overflow=hidden;connectable=0;fillColor=none;top=0;left=0;bottom=0;right=0;align=left;spacingLeft=6;" vertex="1" parent="v78C8Z_HUgaOXY8lsGoI-25">
          <mxGeometry x="90" width="160" height="30" as="geometry" />
        </mxCell>
        <mxCell id="v78C8Z_HUgaOXY8lsGoI-28" value="Answer" style="shape=table;startSize=30;container=1;collapsible=1;childLayout=tableLayout;fixedRows=1;rowLines=0;fontStyle=1;align=center;resizeLast=1;" vertex="1" parent="1">
          <mxGeometry x="120" y="120" width="250" height="150" as="geometry">
            <mxRectangle x="120" y="120" width="80" height="30" as="alternateBounds" />
          </mxGeometry>
        </mxCell>
        <mxCell id="v78C8Z_HUgaOXY8lsGoI-29" style="shape=partialRectangle;collapsible=0;dropTarget=0;pointerEvents=0;fillColor=none;points=[[0,0.5],[1,0.5]];portConstraint=eastwest;top=0;left=0;right=0;bottom=1;" vertex="1" parent="v78C8Z_HUgaOXY8lsGoI-28">
          <mxGeometry y="30" width="250" height="30" as="geometry" />
        </mxCell>
        <mxCell id="v78C8Z_HUgaOXY8lsGoI-30" value="id" style="shape=partialRectangle;overflow=hidden;connectable=0;fillColor=none;top=0;left=0;bottom=0;right=0;fontStyle=0;" vertex="1" parent="v78C8Z_HUgaOXY8lsGoI-29">
          <mxGeometry width="110" height="30" as="geometry" />
        </mxCell>
        <mxCell id="v78C8Z_HUgaOXY8lsGoI-31" value="integer(auto increment)" style="shape=partialRectangle;overflow=hidden;connectable=0;fillColor=none;top=0;left=0;bottom=0;right=0;align=left;spacingLeft=6;fontStyle=0;" vertex="1" parent="v78C8Z_HUgaOXY8lsGoI-29">
          <mxGeometry x="110" width="140" height="30" as="geometry" />
        </mxCell>
        <mxCell id="v78C8Z_HUgaOXY8lsGoI-32" value="" style="shape=partialRectangle;collapsible=0;dropTarget=0;pointerEvents=0;fillColor=none;points=[[0,0.5],[1,0.5]];portConstraint=eastwest;top=0;left=0;right=0;bottom=1;" vertex="1" parent="v78C8Z_HUgaOXY8lsGoI-28">
          <mxGeometry y="60" width="250" height="30" as="geometry" />
        </mxCell>
        <mxCell id="v78C8Z_HUgaOXY8lsGoI-33" value="body" style="shape=partialRectangle;overflow=hidden;connectable=0;fillColor=none;top=0;left=0;bottom=0;right=0;fontStyle=0;" vertex="1" parent="v78C8Z_HUgaOXY8lsGoI-32">
          <mxGeometry width="110" height="30" as="geometry" />
        </mxCell>
        <mxCell id="v78C8Z_HUgaOXY8lsGoI-34" value="varchar" style="shape=partialRectangle;overflow=hidden;connectable=0;fillColor=none;top=0;left=0;bottom=0;right=0;align=left;spacingLeft=6;fontStyle=0;" vertex="1" parent="v78C8Z_HUgaOXY8lsGoI-32">
          <mxGeometry x="110" width="140" height="30" as="geometry" />
        </mxCell>
        <mxCell id="v78C8Z_HUgaOXY8lsGoI-35" style="shape=partialRectangle;collapsible=0;dropTarget=0;pointerEvents=0;fillColor=none;points=[[0,0.5],[1,0.5]];portConstraint=eastwest;top=0;left=0;right=0;bottom=1;" vertex="1" parent="v78C8Z_HUgaOXY8lsGoI-28">
          <mxGeometry y="90" width="250" height="30" as="geometry" />
        </mxCell>
        <mxCell id="v78C8Z_HUgaOXY8lsGoI-36" value="correct" style="shape=partialRectangle;overflow=hidden;connectable=0;fillColor=none;top=0;left=0;bottom=0;right=0;fontStyle=0;" vertex="1" parent="v78C8Z_HUgaOXY8lsGoI-35">
          <mxGeometry width="110" height="30" as="geometry" />
        </mxCell>
        <mxCell id="v78C8Z_HUgaOXY8lsGoI-37" value="boolean" style="shape=partialRectangle;overflow=hidden;connectable=0;fillColor=none;top=0;left=0;bottom=0;right=0;align=left;spacingLeft=6;fontStyle=0;" vertex="1" parent="v78C8Z_HUgaOXY8lsGoI-35">
          <mxGeometry x="110" width="140" height="30" as="geometry" />
        </mxCell>
        <mxCell id="v78C8Z_HUgaOXY8lsGoI-38" style="shape=partialRectangle;collapsible=0;dropTarget=0;pointerEvents=0;fillColor=none;points=[[0,0.5],[1,0.5]];portConstraint=eastwest;top=0;left=0;right=0;bottom=1;" vertex="1" parent="v78C8Z_HUgaOXY8lsGoI-28">
          <mxGeometry y="120" width="250" height="30" as="geometry" />
        </mxCell>
        <mxCell id="v78C8Z_HUgaOXY8lsGoI-39" value="question_id" style="shape=partialRectangle;overflow=hidden;connectable=0;fillColor=none;top=0;left=0;bottom=0;right=0;fontStyle=0;" vertex="1" parent="v78C8Z_HUgaOXY8lsGoI-38">
          <mxGeometry width="110" height="30" as="geometry" />
        </mxCell>
        <mxCell id="v78C8Z_HUgaOXY8lsGoI-40" value="integer" style="shape=partialRectangle;overflow=hidden;connectable=0;fillColor=none;top=0;left=0;bottom=0;right=0;align=left;spacingLeft=6;fontStyle=0;" vertex="1" parent="v78C8Z_HUgaOXY8lsGoI-38">
          <mxGeometry x="110" width="140" height="30" as="geometry" />
        </mxCell>
        <mxCell id="v78C8Z_HUgaOXY8lsGoI-41" value="Category" style="shape=table;startSize=30;container=1;collapsible=1;childLayout=tableLayout;fixedRows=1;rowLines=0;fontStyle=1;align=center;resizeLast=1;" vertex="1" parent="1">
          <mxGeometry x="450" y="490" width="250" height="120" as="geometry" />
        </mxCell>
        <mxCell id="v78C8Z_HUgaOXY8lsGoI-42" value="" style="shape=partialRectangle;collapsible=0;dropTarget=0;pointerEvents=0;fillColor=none;points=[[0,0.5],[1,0.5]];portConstraint=eastwest;top=0;left=0;right=0;bottom=1;" vertex="1" parent="v78C8Z_HUgaOXY8lsGoI-41">
          <mxGeometry y="30" width="250" height="30" as="geometry" />
        </mxCell>
        <mxCell id="v78C8Z_HUgaOXY8lsGoI-43" value="id" style="shape=partialRectangle;overflow=hidden;connectable=0;fillColor=none;top=0;left=0;bottom=0;right=0;fontStyle=0;" vertex="1" parent="v78C8Z_HUgaOXY8lsGoI-42">
          <mxGeometry width="100" height="30" as="geometry" />
        </mxCell>
        <mxCell id="v78C8Z_HUgaOXY8lsGoI-44" value="integer(auto increment)" style="shape=partialRectangle;overflow=hidden;connectable=0;fillColor=none;top=0;left=0;bottom=0;right=0;align=left;spacingLeft=6;fontStyle=0;" vertex="1" parent="v78C8Z_HUgaOXY8lsGoI-42">
          <mxGeometry x="100" width="150" height="30" as="geometry" />
        </mxCell>
        <mxCell id="v78C8Z_HUgaOXY8lsGoI-45" style="shape=partialRectangle;collapsible=0;dropTarget=0;pointerEvents=0;fillColor=none;points=[[0,0.5],[1,0.5]];portConstraint=eastwest;top=0;left=0;right=0;bottom=1;" vertex="1" parent="v78C8Z_HUgaOXY8lsGoI-41">
          <mxGeometry y="60" width="250" height="30" as="geometry" />
        </mxCell>
        <mxCell id="v78C8Z_HUgaOXY8lsGoI-46" value="type_of_category" style="shape=partialRectangle;overflow=hidden;connectable=0;fillColor=none;top=0;left=0;bottom=0;right=0;fontStyle=0;" vertex="1" parent="v78C8Z_HUgaOXY8lsGoI-45">
          <mxGeometry width="100" height="30" as="geometry" />
        </mxCell>
        <mxCell id="v78C8Z_HUgaOXY8lsGoI-47" value="varchar" style="shape=partialRectangle;overflow=hidden;connectable=0;fillColor=none;top=0;left=0;bottom=0;right=0;align=left;spacingLeft=6;fontStyle=0;" vertex="1" parent="v78C8Z_HUgaOXY8lsGoI-45">
          <mxGeometry x="100" width="150" height="30" as="geometry" />
        </mxCell>
        <mxCell id="v78C8Z_HUgaOXY8lsGoI-48" value="" style="shape=partialRectangle;collapsible=0;dropTarget=0;pointerEvents=0;fillColor=none;points=[[0,0.5],[1,0.5]];portConstraint=eastwest;top=0;left=0;right=0;bottom=0;" vertex="1" parent="v78C8Z_HUgaOXY8lsGoI-41">
          <mxGeometry y="90" width="250" height="30" as="geometry" />
        </mxCell>
        <mxCell id="v78C8Z_HUgaOXY8lsGoI-49" value="number" style="shape=partialRectangle;overflow=hidden;connectable=0;fillColor=none;top=0;left=0;bottom=0;right=0;" vertex="1" parent="v78C8Z_HUgaOXY8lsGoI-48">
          <mxGeometry width="100" height="30" as="geometry" />
        </mxCell>
        <mxCell id="v78C8Z_HUgaOXY8lsGoI-50" value="integer" style="shape=partialRectangle;overflow=hidden;connectable=0;fillColor=none;top=0;left=0;bottom=0;right=0;align=left;spacingLeft=6;" vertex="1" parent="v78C8Z_HUgaOXY8lsGoI-48">
          <mxGeometry x="100" width="150" height="30" as="geometry" />
        </mxCell>
        <mxCell id="v78C8Z_HUgaOXY8lsGoI-51" value="" style="edgeStyle=orthogonalEdgeStyle;rounded=0;orthogonalLoop=1;jettySize=auto;html=1;exitX=1;exitY=0.5;exitDx=0;exitDy=0;entryX=0;entryY=0.5;entryDx=0;entryDy=0;endArrow=ERone;endFill=0;startArrow=ERmany;startFill=0;" edge="1" parent="1" source="v78C8Z_HUgaOXY8lsGoI-32" target="v78C8Z_HUgaOXY8lsGoI-6">
          <mxGeometry relative="1" as="geometry">
            <mxPoint x="255" y="290" as="sourcePoint" />
            <mxPoint x="255" y="370" as="targetPoint" />
          </mxGeometry>
        </mxCell>
        <mxCell id="v78C8Z_HUgaOXY8lsGoI-52" value="" style="endArrow=ERone;startArrow=ERoneToMany;endFill=0;startFill=0;entryX=0.539;entryY=1.011;entryDx=0;entryDy=0;entryPerimeter=0;" edge="1" parent="1" target="v78C8Z_HUgaOXY8lsGoI-25">
          <mxGeometry width="100" height="100" relative="1" as="geometry">
            <mxPoint x="585" y="488" as="sourcePoint" />
            <mxPoint x="586" y="445" as="targetPoint" />
          </mxGeometry>
        </mxCell>
        <mxCell id="v78C8Z_HUgaOXY8lsGoI-53" value="User" style="shape=table;startSize=30;container=1;collapsible=1;childLayout=tableLayout;fixedRows=1;rowLines=0;fontStyle=1;align=center;resizeLast=1;" vertex="1" parent="1">
          <mxGeometry x="120" y="325" width="250" height="120" as="geometry">
            <mxRectangle x="120" y="120" width="80" height="30" as="alternateBounds" />
          </mxGeometry>
        </mxCell>
        <mxCell id="v78C8Z_HUgaOXY8lsGoI-54" style="shape=partialRectangle;collapsible=0;dropTarget=0;pointerEvents=0;fillColor=none;points=[[0,0.5],[1,0.5]];portConstraint=eastwest;top=0;left=0;right=0;bottom=1;" vertex="1" parent="v78C8Z_HUgaOXY8lsGoI-53">
          <mxGeometry y="30" width="250" height="30" as="geometry" />
        </mxCell>
        <mxCell id="v78C8Z_HUgaOXY8lsGoI-55" value="id" style="shape=partialRectangle;overflow=hidden;connectable=0;fillColor=none;top=0;left=0;bottom=0;right=0;fontStyle=0;" vertex="1" parent="v78C8Z_HUgaOXY8lsGoI-54">
          <mxGeometry width="110" height="30" as="geometry" />
        </mxCell>
        <mxCell id="v78C8Z_HUgaOXY8lsGoI-56" value="integer(auto increment)" style="shape=partialRectangle;overflow=hidden;connectable=0;fillColor=none;top=0;left=0;bottom=0;right=0;align=left;spacingLeft=6;fontStyle=0;" vertex="1" parent="v78C8Z_HUgaOXY8lsGoI-54">
          <mxGeometry x="110" width="140" height="30" as="geometry" />
        </mxCell>
        <mxCell id="v78C8Z_HUgaOXY8lsGoI-57" value="" style="shape=partialRectangle;collapsible=0;dropTarget=0;pointerEvents=0;fillColor=none;points=[[0,0.5],[1,0.5]];portConstraint=eastwest;top=0;left=0;right=0;bottom=1;" vertex="1" parent="v78C8Z_HUgaOXY8lsGoI-53">
          <mxGeometry y="60" width="250" height="30" as="geometry" />
        </mxCell>
        <mxCell id="v78C8Z_HUgaOXY8lsGoI-58" value="first_name" style="shape=partialRectangle;overflow=hidden;connectable=0;fillColor=none;top=0;left=0;bottom=0;right=0;fontStyle=0;" vertex="1" parent="v78C8Z_HUgaOXY8lsGoI-57">
          <mxGeometry width="110" height="30" as="geometry" />
        </mxCell>
        <mxCell id="v78C8Z_HUgaOXY8lsGoI-59" value="varchar" style="shape=partialRectangle;overflow=hidden;connectable=0;fillColor=none;top=0;left=0;bottom=0;right=0;align=left;spacingLeft=6;fontStyle=0;" vertex="1" parent="v78C8Z_HUgaOXY8lsGoI-57">
          <mxGeometry x="110" width="140" height="30" as="geometry" />
        </mxCell>
        <mxCell id="v78C8Z_HUgaOXY8lsGoI-60" style="shape=partialRectangle;collapsible=0;dropTarget=0;pointerEvents=0;fillColor=none;points=[[0,0.5],[1,0.5]];portConstraint=eastwest;top=0;left=0;right=0;bottom=1;" vertex="1" parent="v78C8Z_HUgaOXY8lsGoI-53">
          <mxGeometry y="90" width="250" height="30" as="geometry" />
        </mxCell>
        <mxCell id="v78C8Z_HUgaOXY8lsGoI-61" value="last_name" style="shape=partialRectangle;overflow=hidden;connectable=0;fillColor=none;top=0;left=0;bottom=0;right=0;fontStyle=0;" vertex="1" parent="v78C8Z_HUgaOXY8lsGoI-60">
          <mxGeometry width="110" height="30" as="geometry" />
        </mxCell>
        <mxCell id="v78C8Z_HUgaOXY8lsGoI-62" value="varchar" style="shape=partialRectangle;overflow=hidden;connectable=0;fillColor=none;top=0;left=0;bottom=0;right=0;align=left;spacingLeft=6;fontStyle=0;" vertex="1" parent="v78C8Z_HUgaOXY8lsGoI-60">
          <mxGeometry x="110" width="140" height="30" as="geometry" />
        </mxCell>
        <mxCell id="v78C8Z_HUgaOXY8lsGoI-63" value="Users_session" style="shape=table;startSize=30;container=1;collapsible=1;childLayout=tableLayout;fixedRows=1;rowLines=0;fontStyle=1;align=center;resizeLast=1;" vertex="1" parent="1">
          <mxGeometry x="120" y="490" width="250" height="120" as="geometry" />
        </mxCell>
        <mxCell id="v78C8Z_HUgaOXY8lsGoI-64" value="" style="shape=partialRectangle;collapsible=0;dropTarget=0;pointerEvents=0;fillColor=none;points=[[0,0.5],[1,0.5]];portConstraint=eastwest;top=0;left=0;right=0;bottom=1;" vertex="1" parent="v78C8Z_HUgaOXY8lsGoI-63">
          <mxGeometry y="30" width="250" height="30" as="geometry" />
        </mxCell>
        <mxCell id="v78C8Z_HUgaOXY8lsGoI-65" value="id" style="shape=partialRectangle;overflow=hidden;connectable=0;fillColor=none;top=0;left=0;bottom=0;right=0;fontStyle=0;" vertex="1" parent="v78C8Z_HUgaOXY8lsGoI-64">
          <mxGeometry width="100" height="30" as="geometry" />
        </mxCell>
        <mxCell id="v78C8Z_HUgaOXY8lsGoI-66" value="integer(auto increment)" style="shape=partialRectangle;overflow=hidden;connectable=0;fillColor=none;top=0;left=0;bottom=0;right=0;align=left;spacingLeft=6;fontStyle=0;" vertex="1" parent="v78C8Z_HUgaOXY8lsGoI-64">
          <mxGeometry x="100" width="150" height="30" as="geometry" />
        </mxCell>
        <mxCell id="v78C8Z_HUgaOXY8lsGoI-67" style="shape=partialRectangle;collapsible=0;dropTarget=0;pointerEvents=0;fillColor=none;points=[[0,0.5],[1,0.5]];portConstraint=eastwest;top=0;left=0;right=0;bottom=1;" vertex="1" parent="v78C8Z_HUgaOXY8lsGoI-63">
          <mxGeometry y="60" width="250" height="30" as="geometry" />
        </mxCell>
        <mxCell id="v78C8Z_HUgaOXY8lsGoI-68" value="user_id" style="shape=partialRectangle;overflow=hidden;connectable=0;fillColor=none;top=0;left=0;bottom=0;right=0;fontStyle=0;" vertex="1" parent="v78C8Z_HUgaOXY8lsGoI-67">
          <mxGeometry width="100" height="30" as="geometry" />
        </mxCell>
        <mxCell id="v78C8Z_HUgaOXY8lsGoI-69" value="integer" style="shape=partialRectangle;overflow=hidden;connectable=0;fillColor=none;top=0;left=0;bottom=0;right=0;align=left;spacingLeft=6;fontStyle=0;" vertex="1" parent="v78C8Z_HUgaOXY8lsGoI-67">
          <mxGeometry x="100" width="150" height="30" as="geometry" />
        </mxCell>
        <mxCell id="v78C8Z_HUgaOXY8lsGoI-70" value="" style="shape=partialRectangle;collapsible=0;dropTarget=0;pointerEvents=0;fillColor=none;points=[[0,0.5],[1,0.5]];portConstraint=eastwest;top=0;left=0;right=0;bottom=0;" vertex="1" parent="v78C8Z_HUgaOXY8lsGoI-63">
          <mxGeometry y="90" width="250" height="30" as="geometry" />
        </mxCell>
        <mxCell id="v78C8Z_HUgaOXY8lsGoI-71" value="test_id" style="shape=partialRectangle;overflow=hidden;connectable=0;fillColor=none;top=0;left=0;bottom=0;right=0;" vertex="1" parent="v78C8Z_HUgaOXY8lsGoI-70">
          <mxGeometry width="100" height="30" as="geometry" />
        </mxCell>
        <mxCell id="v78C8Z_HUgaOXY8lsGoI-72" value="integer" style="shape=partialRectangle;overflow=hidden;connectable=0;fillColor=none;top=0;left=0;bottom=0;right=0;align=left;spacingLeft=6;" vertex="1" parent="v78C8Z_HUgaOXY8lsGoI-70">
          <mxGeometry x="100" width="150" height="30" as="geometry" />
        </mxCell>
        <mxCell id="v78C8Z_HUgaOXY8lsGoI-73" value="" style="endArrow=ERone;startArrow=ERzeroToMany;endFill=0;startFill=1;entryX=0;entryY=0.5;entryDx=0;entryDy=0;exitX=1.003;exitY=-0.044;exitDx=0;exitDy=0;exitPerimeter=0;edgeStyle=elbowEdgeStyle;" edge="1" parent="1" source="v78C8Z_HUgaOXY8lsGoI-67" target="v78C8Z_HUgaOXY8lsGoI-22">
          <mxGeometry width="100" height="100" relative="1" as="geometry">
            <mxPoint x="390.25" y="571.67" as="sourcePoint" />
            <mxPoint x="390" y="529" as="targetPoint" />
          </mxGeometry>
        </mxCell>
        <mxCell id="v78C8Z_HUgaOXY8lsGoI-74" value="" style="endArrow=ERone;startArrow=ERzeroToMany;endFill=0;startFill=1;edgeStyle=elbowEdgeStyle;" edge="1" parent="1" target="v78C8Z_HUgaOXY8lsGoI-60">
          <mxGeometry width="100" height="100" relative="1" as="geometry">
            <mxPoint x="260" y="490" as="sourcePoint" />
            <mxPoint x="260" y="440" as="targetPoint" />
          </mxGeometry>
        </mxCell>
      </root>
    </mxGraphModel>
  </diagram>
</mxfile>
